<svg width="45" height="45" viewBox="0 0 45 45" fill="none" xmlns="http://www.w3.org/2000/svg">
<path d="M0 7.42663C0 3.32502 3.32501 0 7.42662 0H37.5734C41.675 0 45 3.32501 45 7.42662V37.5734C45 41.675 41.675 45 37.5734 45H7.42663C3.32502 45 0 41.675 0 37.5734V7.42663Z" fill="#FFE927"/>
<path d="M25.1366 6.88651H31.4577V27.9764C31.4577 29.9259 31.0195 31.6194 30.1432 33.0569C29.2768 34.4944 28.0707 35.6021 26.5249 36.3799C24.9791 37.1577 23.1822 37.5467 21.1342 37.5467C19.3127 37.5467 17.6586 37.2267 16.1719 36.5867C14.695 35.9368 13.5233 34.9523 12.6569 33.6329C11.7905 32.3037 11.3622 30.6348 11.372 28.6263H17.7374C17.7571 29.4238 17.9195 30.1081 18.2248 30.6791C18.5398 31.2403 18.9681 31.6736 19.5097 31.9788C20.061 32.2742 20.7109 32.4219 21.4591 32.4219C22.2468 32.4219 22.9114 32.2545 23.4529 31.9197C24.0043 31.5751 24.4228 31.073 24.7083 30.4133C24.9938 29.7536 25.1366 28.9413 25.1366 27.9764V6.88651Z" fill="black"/>
</svg>
